<?xml version="1.0" encoding="UTF-8"?>
<svg version="1.1" xmlns="http://www.w3.org/2000/svg" width="472" height="123">
<path d="M0 0 C155.76 0 311.52 0 472 0 C472 40.59 472 81.18 472 123 C316.24 123 160.48 123 0 123 C0 82.41 0 41.82 0 0 Z " fill="#FEFDFD" transform="translate(0,0)"/>
<path d="M0 0 C3.71035884 1.1901151 4.39465617 1.79485406 6.3125 5.0625 C8.23157188 14.0459814 5.08501027 21.75502622 0.47314453 29.33544922 C-2.22457518 33.34968339 -5.45720716 36.90744614 -8.74609375 40.44140625 C-10.88346326 43.32707012 -11.1492981 44.56422121 -10.6875 48.0625 C-10.31238281 47.45921875 -9.93726562 46.8559375 -9.55078125 46.234375 C-3.00391286 36.01004653 -3.00391286 36.01004653 3.8125 34.0625 C7.3125 34.0625 7.3125 34.0625 10.25 35.375 C12.9371611 38.87645235 13.01728014 41.24965134 12.8125 45.58203125 C12.00792871 49.57345912 10.2714942 51.31486253 7.3125 54.0625 C6.3225 54.5575 6.3225 54.5575 5.3125 55.0625 C5.8075 57.0425 5.8075 57.0425 6.3125 59.0625 C9.72031433 59.3723013 11.64243155 59.53853784 14.484375 57.51953125 C16.92401 54.2406201 16.81789786 51.42738974 16.8125 47.5 C17.27524426 32.09698723 19.9147462 14.03128619 30.3125 2.0625 C33.30315777 0.03657055 35.72917649 -0.47499853 39.3125 0.0625 C42.03311226 2.32967688 44.0763097 4.26590491 44.55078125 7.875 C44.96695524 20.14118083 37.87726595 31.14642916 29.875 40 C26.88468491 42.90826483 26.88468491 42.90826483 27.3125 47.0625 C27.75980469 46.37542969 28.20710938 45.68835938 28.66796875 44.98046875 C29.57482422 43.62888672 29.57482422 43.62888672 30.5 42.25 C31.09167969 41.35667969 31.68335938 40.46335938 32.29296875 39.54296875 C34.45878555 36.88282626 36.20821648 35.49823113 39.3125 34.0625 C43.125 34.375 43.125 34.375 46.3125 35.0625 C46.67261137 43.56512969 45.5652717 51.67340382 44.3125 60.0625 C47.22767292 58.98848892 49.09060176 58.28439824 51.3125 56.0625 C51.64419007 54.51177803 51.90612328 52.94562087 52.125 51.375 C53.35835686 44.74929223 56.02880533 40.99095328 61.125 36.6875 C65.03408233 34.6946345 67.95712549 34.36287066 72.3125 34.0625 C72.6425 35.0525 72.9725 36.0425 73.3125 37.0625 C75.6225 37.0625 77.9325 37.0625 80.3125 37.0625 C80.42276464 42.30696182 80.01578983 47.30610953 79.3125 52.5 C79.21710938 53.23154297 79.12171875 53.96308594 79.0234375 54.71679688 C78.79044062 56.499223 78.55203734 58.28094104 78.3125 60.0625 C81.22767292 58.98848892 83.09060176 58.28439824 85.3125 56.0625 C85.89208318 53.45147779 86.38532262 50.88582527 86.8125 48.25 C87.56981108 43.65203989 88.36556752 39.33400273 90.3125 35.0625 C93.7775 34.5675 93.7775 34.5675 97.3125 34.0625 C97.41014874 38.84728822 97.08362541 43.33935687 96.3125 48.0625 C96.869375 47.010625 97.42625 45.95875 98 44.875 C100.63557193 40.25807613 103.88666783 37.01305478 108.3125 34.0625 C112 34.4375 112 34.4375 115.3125 35.0625 C115.33949725 37.33326842 115.35889453 39.60412821 115.375 41.875 C115.38660156 43.13957031 115.39820313 44.40414062 115.41015625 45.70703125 C115.3125 49.0625 115.3125 49.0625 114.3125 52.0625 C114.04176677 55.67657378 113.86698271 59.29029264 113.69140625 62.91015625 C113.3125 66.0625 113.3125 66.0625 111.3125 68.0625 C108.8125 68.3125 108.8125 68.3125 106.3125 68.0625 C104.3125 66.0625 104.3125 66.0625 104.0625 62.75 C104.19463852 56.79275521 105.31181553 50.92365192 106.3125 45.0625 C100.88301224 49.43625403 99.44449043 54.5827387 97.3125 61.0625 C96.21772508 64.07421283 95.59094532 65.78405468 93.3125 68.0625 C90.6875 67.6875 90.6875 67.6875 88.3125 67.0625 C87.9825 66.0725 87.6525 65.0825 87.3125 64.0625 C86.28125 64.743125 85.25 65.42375 84.1875 66.125 C81.44105299 67.68409416 80.39448329 68.0625 77.125 68.0625 C73.96412476 66.93863325 72.45063818 65.6118186 70.3125 63.0625 C69.57 64.0215625 69.57 64.0215625 68.8125 65 C65.50456208 67.72904879 62.57431425 68.33546744 58.3125 68.0625 C56.0625 66.5625 56.0625 66.5625 54.3125 65.0625 C51.9000189 65.29596591 50.15022023 66.13509884 47.9375 67.125 C44.76701429 68.25731633 42.65301354 68.56002329 39.3125 68.0625 C36.7408457 65.96457149 35.51454724 64.36823031 35 61.04296875 C34.84566623 55.53518225 35.9085276 50.36500289 37.3125 45.0625 C32.58973458 49.12932578 30.588762 53.32278763 28.3125 59.0625 C25.55211661 65.82288339 25.55211661 65.82288339 23.3125 68.0625 C20.01535207 67.73278521 18.6898161 67.4398161 16.3125 65.0625 C15.6525 65.5575 14.9925 66.0525 14.3125 66.5625 C10.48502125 68.47623937 7.51712736 68.69362054 3.3125 68.0625 C-0.33105647 66.44314157 -2.81395605 64.61237274 -4.6875 61.0625 C-5.3125 57.625 -5.3125 57.625 -4.6875 54.0625 C-3.00033524 52.57710812 -1.23397336 51.49030647 0.6875 50.328125 C2.67168631 49.04025101 2.67168631 49.04025101 3.25 45.75 C3.270625 44.863125 3.29125 43.97625 3.3125 43.0625 C-2.09710422 44.76501503 -3.5598415 47.33396404 -6.26171875 52.109375 C-8.58794976 56.92754115 -10.18973742 61.93486576 -11.6875 67.0625 C-14.07421875 67.65234375 -14.07421875 67.65234375 -16.6875 68.0625 C-18.5 66.625 -18.5 66.625 -19.6875 65.0625 C-20.8321875 65.5265625 -20.8321875 65.5265625 -22 66 C-26.61884807 67.82605621 -30.73134376 69.08393005 -35.6875 68.0625 C-42.6280991 64.32829934 -45.71862947 57.84718648 -48.94921875 50.953125 C-50.85107483 47.79048792 -52.40517347 46.65054214 -55.6875 45.0625 C-55.85185547 46.70798828 -55.85185547 46.70798828 -56.01953125 48.38671875 C-56.17905666 49.84121516 -56.33924813 51.29563863 -56.5 52.75 C-56.57025391 53.47123047 -56.64050781 54.19246094 -56.71289062 54.93554688 C-57.21248811 59.31202083 -57.93609668 62.4716855 -60.6875 66.0625 C-64.41329089 68.54636059 -66.27461402 68.4429212 -70.6875 68.0625 C-76.33380555 65.64265476 -80.34039376 60.67528748 -82.6875 55.0625 C-83.12737829 51.72053392 -83.06837165 48.36827114 -83.0625 45 C-83.06088867 44.05568115 -83.05927734 43.1113623 -83.05761719 42.13842773 C-82.93472916 35.14646052 -82.05232634 29.28976541 -78.6875 23.0625 C-78.11 21.99 -77.5325 20.9175 -76.9375 19.8125 C-70.7173644 12.21011204 -63.67724085 6.86654862 -53.69921875 5.71875 C-46.66878948 5.50435317 -39.26209079 5.80464511 -33.8359375 10.75 C-29.8502387 15.28349627 -28.19123482 18.46980593 -28.2890625 24.5546875 C-29.19388021 30.24971662 -32.6552323 34.45651284 -37.08984375 37.9609375 C-39.25028517 39.41488386 -41.4224412 40.77896668 -43.6875 42.0625 C-42.98625 42.495625 -42.285 42.92875 -41.5625 43.375 C-38.61591196 46.12941926 -37.54341046 48.16720148 -35.8125 51.75 C-33.56467797 56.24471982 -33.56467797 56.24471982 -29.125 58.5 C-24.80240675 57.94985177 -23.55494609 57.36816044 -20.6875 54.0625 C-19.84725914 50.1519821 -19.76382695 46.23886366 -19.625 42.25 C-18.81179639 28.12071382 -17.52865766 12.4256543 -6.8125 1.9375 C-3.6875 0.0625 -3.6875 0.0625 0 0 Z " fill="#FF0909" transform="translate(111.6875,18.9375)"/>
<path d="M0 0 C3.96 0 7.92 0 12 0 C12 0.99 12 1.98 12 3 C12.66 2.67 13.32 2.34 14 2 C19.34709374 1.6493709 22.62872307 1.55596363 27 5 C28.28446919 7.56893838 28.32977144 9.76576337 28.5625 12.625 C28.64628906 13.62789062 28.73007812 14.63078125 28.81640625 15.6640625 C28.87699219 16.43492188 28.93757813 17.20578125 29 18 C29.556875 16.4840625 29.556875 16.4840625 30.125 14.9375 C32.20622206 10.08460306 35.35360336 5.69324531 39.84375 2.8203125 C42.51146144 1.80542228 44.71198007 1.69913478 47.5625 1.6875 C48.51253906 1.67074219 49.46257812 1.65398438 50.44140625 1.63671875 C53 2 53 2 54.8125 3.18359375 C57.28617233 6.96733596 56.55172943 11.68129036 56 16 C53.52819282 20.8406224 49.03044496 23.24130928 44 25 C42.68 25 41.36 25 40 25 C40.495 27.97 40.495 27.97 41 31 C46.85273497 31.62692146 46.85273497 31.62692146 51.75 28.8125 C52.86375 27.4203125 52.86375 27.4203125 54 26 C54.64324219 25.24847656 55.28648437 24.49695313 55.94921875 23.72265625 C58.15063689 20.80001159 59.57541965 17.96399109 61.0625 14.625 C61.57167969 13.48933594 62.08085937 12.35367188 62.60546875 11.18359375 C64.83064004 6.10375409 64.83064004 6.10375409 67 1 C70.96 0.67 74.92 0.34 79 0 C79.32264439 5.83064512 79.61823484 11.66141393 79.87988281 17.49511719 C79.98053867 19.59416003 80.10814125 21.69188724 80.2421875 23.7890625 C80.5939718 31.96287412 80.5939718 31.96287412 77.8125 35.625 C72.87280309 39.79629961 68.8139458 40.48796788 62.44921875 40.40234375 C58.49105356 39.75211885 56.71916751 37.86228159 54 35 C53.071875 35.639375 52.14375 36.27875 51.1875 36.9375 C45.70786825 40.48314407 40.39704299 40.86977339 34 40 C30.875 37.5625 30.875 37.5625 29 35 C28.67 34.67 28.34 34.34 28 34 C27.54540142 31.34536879 27.29756762 28.67810862 27 26 C26.52820313 27.03060547 26.52820313 27.03060547 26.046875 28.08203125 C25.61890625 28.98308594 25.1909375 29.88414063 24.75 30.8125 C24.33234375 31.70582031 23.9146875 32.59914062 23.484375 33.51953125 C21.2686646 37.22209994 19.05310368 38.64896544 15 40 C13.48138245 40.09203743 11.95889574 40.13001284 10.4375 40.125 C9.25994141 40.12886719 9.25994141 40.12886719 8.05859375 40.1328125 C6 40 6 40 4 39 C3.814375 40.7325 3.814375 40.7325 3.625 42.5 C3.09721115 46.78350375 2.11601963 50.83352672 1 55 C-2.96 55.99 -6.92 56.98 -11 58 C-11.48452463 51.05514697 -9.69287491 44.7009632 -8 38 C-8.57878906 38.3196875 -9.15757812 38.639375 -9.75390625 38.96875 C-13.13719867 40.52212252 -16.40622945 40.85396528 -20 40 C-22.20119822 38.18414344 -23.39220298 36.41169554 -25 34 C-25.47050781 34.34933594 -25.94101562 34.69867188 -26.42578125 35.05859375 C-27.04839844 35.51363281 -27.67101562 35.96867187 -28.3125 36.4375 C-28.92738281 36.88996094 -29.54226563 37.34242187 -30.17578125 37.80859375 C-34.88518469 40.88432833 -40.58973787 40.72663375 -46 40 C-49.1875 37.625 -49.1875 37.625 -51 35 C-51 34.34 -51 33.68 -51 33 C-51.93972656 33.63228516 -51.93972656 33.63228516 -52.8984375 34.27734375 C-53.71570313 34.82519531 -54.53296875 35.37304688 -55.375 35.9375 C-56.18710937 36.48277344 -56.99921875 37.02804688 -57.8359375 37.58984375 C-62.6818869 40.74758334 -67.32162576 40.59901925 -73 40 C-76.69698659 37.88743623 -78.39547361 35.87586894 -80 32 C-81.0364393 24.45568605 -79.91328834 17.55097441 -76 11 C-73.10890459 7.53754186 -70.07779573 4.03889786 -66 2 C-64.21247508 1.85245826 -62.4183716 1.7788478 -60.625 1.75 C-59.66851562 1.72421875 -58.71203125 1.6984375 -57.7265625 1.671875 C-54.55488017 2.05356743 -53.22270517 2.72560401 -51 5 C-50.30729352 10.19529864 -50.67083886 13.8392348 -53.59375 18.390625 C-56.18566512 21.35692786 -59.38330435 23.46714267 -63 25 C-64.32 25 -65.64 25 -67 25 C-67 27.31 -67 29.62 -67 32 C-62.60657454 31.80856534 -58.98721642 31.52511512 -55.0625 29.4375 C-52.80041213 26.76412342 -52.13955805 24.54633443 -51.4453125 21.14453125 C-50.01482651 14.25561187 -47.26741003 8.76513866 -42 4 C-38.95721031 2.09588421 -36.56913855 1.70382228 -33 1.6875 C-31.7315625 1.66236328 -31.7315625 1.66236328 -30.4375 1.63671875 C-27.45885949 2.08065075 -26.10904561 2.86206336 -24 5 C-23.33740346 7.83568858 -23.71832307 10.04239226 -24 13 C-24.66 13.66 -25.32 14.32 -26 15 C-28.625 14.625 -28.625 14.625 -31 14 C-31 12.02 -31 10.04 -31 8 C-34.04127205 8.66767195 -34.04127205 8.66767195 -35.1328125 10.7421875 C-35.46023438 11.44601563 -35.78765625 12.14984375 -36.125 12.875 C-36.45757812 13.57367188 -36.79015625 14.27234375 -37.1328125 14.9921875 C-38.75740068 18.7536214 -39.11034474 21.62069696 -39.0625 25.6875 C-39.05347656 26.68136719 -39.04445313 27.67523438 -39.03515625 28.69921875 C-39.02355469 29.45847656 -39.01195312 30.21773437 -39 31 C-34.21632304 31.50354494 -31.08651413 31.59817038 -27.125 28.6875 C-23.5434061 25.2274534 -22.99518566 21.8555553 -22.3984375 17.03515625 C-21.72625873 11.91473562 -20.29276147 6.99476022 -19 2 C-15.04 2 -11.08 2 -7 2 C-7.53788453 6.93060823 -8.33261785 11.65309994 -9.45703125 16.48046875 C-10.49258182 21.2857214 -11.2280536 26.14659229 -12 31 C-9.53044606 30.58377402 -9.53044606 30.58377402 -7 29 C-4.4092269 23.58185352 -3.29745027 18.15158525 -2.375 12.25 C-1.70067772 8.12515625 -1.01495481 4.05981924 0 0 Z " fill="#3A2279" transform="translate(350,48)"/>
<path d="M0 0 C2.3111175 1.46076097 4.33847411 2.98691161 6.26953125 4.91796875 C6.4478329 6.85005712 6.53746542 8.79068247 6.58203125 10.73046875 C6.63810547 12.31794922 6.63810547 12.31794922 6.6953125 13.9375 C6.17558499 17.5755926 4.95248936 18.5331171 2.26953125 20.91796875 C2.45968379 23.13641501 2.6847528 24.3331903 4.26953125 25.91796875 C4.49307238 30.16525028 4.42864324 33.76158386 3.26953125 37.85546875 C2.09945021 42.11490044 1.46588755 46.53681437 2.26953125 50.91796875 C3.7017342 52.67450121 3.7017342 52.67450121 5.26953125 53.91796875 C0.48949473 54.87397605 -3.87768765 55.24148749 -8.73046875 54.91796875 C-11.43263867 50.86471387 -11.15765116 47.67448054 -10.73046875 42.91796875 C-9.73046875 39.91796875 -9.73046875 39.91796875 -8.73046875 36.91796875 C-8.56168393 33.90962754 -8.61008546 30.92755101 -8.73046875 27.91796875 C-10.05046875 27.58796875 -11.37046875 27.25796875 -12.73046875 26.91796875 C-12.89482422 28.08199219 -12.89482422 28.08199219 -13.0625 29.26953125 C-14.28216758 37.57913636 -15.88806434 45.72541049 -17.73046875 53.91796875 C-21.69046875 53.91796875 -25.65046875 53.91796875 -29.73046875 53.91796875 C-28.85546875 43.04296875 -28.85546875 43.04296875 -27.73046875 41.91796875 C-27.35878393 39.75755075 -27.03255484 37.58921253 -26.73046875 35.41796875 C-25.84157986 29.02907986 -25.84157986 29.02907986 -24.73046875 27.91796875 C-24.07126972 24.37336141 -23.48516347 20.82473579 -22.92382812 17.26367188 C-21.6297054 9.46540904 -21.6297054 9.46540904 -19.73046875 6.91796875 C-17.92578125 6.08984375 -17.92578125 6.08984375 -15.85546875 5.66796875 C-15.17742187 5.5184375 -14.499375 5.36890625 -13.80078125 5.21484375 C-11.73046875 4.91796875 -11.73046875 4.91796875 -7.73046875 4.91796875 C-8.72046875 10.19796875 -9.71046875 15.47796875 -10.73046875 20.91796875 C-5.70067286 18.29057977 -5.70067286 18.29057977 -3.73046875 13.91796875 C-3.58067769 11.22689486 -3.64046478 8.61808798 -3.73046875 5.91796875 C-8.56192954 3.50223835 -15.20857454 4.41989428 -20.16796875 6.04296875 C-23.51223512 8.48999292 -24.99188326 10.10645442 -26.73046875 13.91796875 C-27.04909878 17.94195766 -26.96504269 21.89111619 -26.73046875 25.91796875 C-30.10546875 25.60546875 -30.10546875 25.60546875 -33.73046875 24.91796875 C-36.57739005 20.64758681 -36.45960721 16.92785561 -35.73046875 11.91796875 C-29.0901893 0.40815104 -12.27332967 -4.86368 0 0 Z " fill="#3C247A" transform="translate(264.73046875,34.08203125)"/>
<path d="M0 0 C4.14048025 2.94210902 4.14048025 2.94210902 4.58984375 5.5546875 C4.68362235 11.0688693 4.10495084 14.3451448 0.25390625 18.6015625 C-3.49829556 20.94668863 -5.2757123 21.6015625 -9.74609375 21.6015625 C-9.17587441 16.2512066 -8.53875014 10.92368398 -7.74609375 5.6015625 C-11.16265399 5.43478968 -11.16265399 5.43478968 -14.74609375 5.6015625 C-17.52189136 8.37736011 -17.60670762 10.90463187 -18.37109375 14.7265625 C-18.63148437 16.00789063 -18.891875 17.28921875 -19.16015625 18.609375 C-19.45019531 20.09050781 -19.45019531 20.09050781 -19.74609375 21.6015625 C-21.06609375 21.9315625 -22.38609375 22.2615625 -23.74609375 22.6015625 C-23.74609375 24.5815625 -23.74609375 26.5615625 -23.74609375 28.6015625 C-23.08609375 28.9315625 -22.42609375 29.2615625 -21.74609375 29.6015625 C-21.8868569 31.5602668 -22.03386135 33.51852343 -22.18359375 35.4765625 C-22.26480469 36.56710938 -22.34601562 37.65765625 -22.4296875 38.78125 C-22.74609375 41.6015625 -22.74609375 41.6015625 -23.74609375 43.6015625 C-25.55859375 43.4140625 -25.55859375 43.4140625 -27.74609375 42.6015625 C-33.01527811 34.99051843 -32.56078597 26.64657877 -31.35546875 17.703125 C-29.41282895 9.80803763 -24.39496692 4.33821738 -17.99609375 -0.4609375 C-12.16468133 -2.1430757 -5.51986753 -2.81097095 0 0 Z " fill="#FFF4F4" transform="translate(67.74609375,34.3984375)"/>
<path d="M0 0 C1.32 0.66 2.64 1.32 4 2 C3.67544172 4.00144274 3.33882656 6.00092329 3 8 C2.92394531 8.85851563 2.84789062 9.71703125 2.76953125 10.6015625 C2.14750649 15.91438576 1.30441166 19.40419171 -2.625 23.1875 C-5.58285742 25.45320797 -7.70342294 26.42599127 -11.4375 26.5 C-15 26 -15 26 -16 25 C-16.98564869 15.95142183 -14.9795281 9.46929215 -10 2 C-9.01 2 -8.02 2 -7 2 C-6.67 3.98 -6.34 5.96 -6 8 C-4.35 7.67 -2.7 7.34 -1 7 C-0.67 4.69 -0.34 2.38 0 0 Z " fill="#EFEDF4" transform="translate(326,54)"/>
<path d="M0 0 C1.41152344 -0.00773437 1.41152344 -0.00773437 2.8515625 -0.015625 C5.375 0.25 5.375 0.25 8.375 2.25 C8.93879512 7.08252958 8.8464452 9.32394693 6.625 13.6875 C4.28736146 16.34981056 3.66131032 16.64935085 0.375 17.25 C0.85486031 11.68109483 1.67415181 6.57932432 3.375 1.25 C-0.585 1.91 -4.545 2.57 -8.625 3.25 C-10.82187375 12.04890376 -10.82187375 12.04890376 -12.1875 21 C-12.331875 22.0725 -12.47625 23.145 -12.625 24.25 C-13.285 24.58 -13.945 24.91 -14.625 25.25 C-16.66638809 20.27411652 -17.65473423 15.55984696 -16.625 10.25 C-14.57808839 6.24517294 -12.31588274 3.11647225 -8.26953125 1.04296875 C-5.38946538 0.17937441 -3.00239027 -0.0165421 0 0 Z " fill="#DBD7E7" transform="translate(253.625,37.75)"/>
<path d="M0 0 C0.8971875 0.309375 0.8971875 0.309375 1.8125 0.625 C2.17619163 8.26252424 1.61257939 14.9216692 -3.125 21.1875 C-5.1875 22.625 -5.1875 22.625 -9.1875 22.625 C-6.97842382 7.2084684 -6.97842382 7.2084684 -5.1875 1.625 C-2.1875 -0.375 -2.1875 -0.375 0 0 Z " fill="#EAE8F1" transform="translate(365.1875,57.375)"/>
<path d="M0 0 C0.99 0.33 1.98 0.66 3 1 C0.82419088 14.03576866 0.82419088 14.03576866 -2.625 17.3125 C-6.93212497 19.46606249 -10.28065385 19.47193462 -15 19 C-15 16.69 -15 14.38 -15 12 C-14.32453125 11.76925781 -13.6490625 11.53851563 -12.953125 11.30078125 C-5.83113034 8.70080021 -5.83113034 8.70080021 -1 3 C-0.67 2.01 -0.34 1.02 0 0 Z " fill="#F3F1F7" transform="translate(298,61)"/>
<path d="M0 0 C1.875 1.0625 1.875 1.0625 3 3 C3.63316583 8.90954774 3.63316583 8.90954774 1.875 11.9375 C-0.87051094 13.49328953 -2.89489054 13.3168479 -6 13 C-8.375 12 -8.375 12 -10 11 C-10.48275862 4.72413793 -10.48275862 4.72413793 -8.375 1.5625 C-5.31881548 -0.44814771 -3.59350675 -0.53520313 0 0 Z " fill="#442C7F" transform="translate(342,35)"/>
<path d="M0 0 C-0.52323906 6.96734111 -1.03058631 13.04587946 -5 19 C-9.875 18.125 -9.875 18.125 -11 17 C-11.69153001 11.35250491 -10.3827687 8.27876657 -7.38671875 3.69921875 C-5.1145138 0.91496761 -3.60020392 0 0 0 Z " fill="#FFEEEE" transform="translate(183,60)"/>
<path d="M0 0 C0.99 0.33 1.98 0.66 3 1 C4.64412913 10.70492887 0.07945458 18.09522631 -5 26 C-5.66 26.33 -6.32 26.66 -7 27 C-7.20384254 21.62277449 -6.52970943 17.01051108 -5.1875 11.8125 C-5.02185547 11.11447266 -4.85621094 10.41644531 -4.68554688 9.69726562 C-3.71817417 5.86062897 -2.66626124 2.95657048 0 0 Z " fill="#FFE5E5" transform="translate(146,26)"/>
<path d="M0 0 C0.99 0 1.98 0 3 0 C4.12667682 9.92548623 1.69611572 16.82784255 -4 25 C-4.99 25.66 -5.98 26.32 -7 27 C-4.52427184 6.78640777 -4.52427184 6.78640777 0 0 Z " fill="#FFECEC" transform="translate(108,26)"/>
<path d="M0 0 C1.258125 -0.04125 2.51625 -0.0825 3.8125 -0.125 C4.52019531 -0.14820313 5.22789062 -0.17140625 5.95703125 -0.1953125 C8 0 8 0 11 2 C11.56379512 6.83252958 11.4714452 9.07394693 9.25 13.4375 C6.91236146 16.09981056 6.28631032 16.39935085 3 17 C3.47986031 11.43109483 4.29915181 6.32932432 6 1 C4.02 1 2.04 1 0 1 C0 0.67 0 0.34 0 0 Z " fill="#EBE9F1" transform="translate(251,38)"/>
<path d="M0 0 C1.32 0 2.64 0 4 0 C4.4375 2.6875 4.4375 2.6875 4 6 C2.30868685 7.44412123 0.51445478 8.52973767 -1.375 9.69921875 C-3.35345934 11.02475564 -3.35345934 11.02475564 -3.9375 14.3125 C-3.958125 15.199375 -3.97875 16.08625 -4 17 C-4.33 17 -4.66 17 -5 17 C-5.144375 16.21625 -5.28875 15.4325 -5.4375 14.625 C-5.87798925 12.03578982 -5.87798925 12.03578982 -7 10 C-6.02223933 8.51990357 -5.0427506 7.04094856 -4.0625 5.5625 C-3.51722656 4.73878906 -2.97195312 3.91507812 -2.41015625 3.06640625 C-1 1 -1 1 0 0 Z " fill="#FFE6E6" transform="translate(111,62)"/>
<path d="M0 0 C0.66 0 1.32 0 2 0 C2.08076963 2.45898655 2.14037143 4.91533742 2.1875 7.375 C2.22520508 8.42300781 2.22520508 8.42300781 2.26367188 9.4921875 C2.29296875 11.5234375 2.29296875 11.5234375 2 15 C-1 17 -1 17 -3.6875 16.625 C-4.8321875 16.315625 -4.8321875 16.315625 -6 16 C-6 15.34 -6 14.68 -6 14 C-5.01 13.67 -4.02 13.34 -3 13 C-3.061875 11.96875 -3.12375 10.9375 -3.1875 9.875 C-2.98864405 5.76531027 -2.05532197 3.51117504 0 0 Z " fill="#D8D3E4" transform="translate(416,64)"/>
<path d="M0 0 C0.66 0 1.32 0 2 0 C1.58789699 5.25431335 0.7645482 8.2354518 -3 12 C-3.99 12.33 -4.98 12.66 -6 13 C-5.63258872 6.87647862 -4.21348564 4.21348564 0 0 Z " fill="#D9D4E5" transform="translate(290,55)"/>
<path d="M0 0 C0.99 0 1.98 0 3 0 C2.74297526 4.3694206 2.39976667 6.51822991 -0.4375 9.9375 C-3 12 -3 12 -5 12 C-4.526508 7.02833396 -3.14907485 3.89003364 0 0 Z " fill="#E2DEEB" transform="translate(396,56)"/>
<path d="M0 0 C0.33 0 0.66 0 1 0 C2.03863773 6.23182639 1.83288874 11.74692761 1 18 C0.34 17.67 -0.32 17.34 -1 17 C-1.66 17.66 -2.32 18.32 -3 19 C-2.27637073 12.60794144 -1.19656638 6.31972924 0 0 Z " fill="#E4E1ED" transform="translate(269,61)"/>
<path d="M0 0 C0.66 0.99 1.32 1.98 2 3 C1.02526874 4.66926454 0.04510211 6.33535642 -0.9375 8 C-1.48277344 8.928125 -2.02804688 9.85625 -2.58984375 10.8125 C-3.05519531 11.534375 -3.52054687 12.25625 -4 13 C-4.33 13 -4.66 13 -5 13 C-5.602537 6.97463002 -5.602537 6.97463002 -3.88671875 4.19921875 C-2.65378147 2.74400545 -1.33191067 1.36520843 0 0 Z " fill="#FFD5D5" transform="translate(105,56)"/>
<path d="M0 0 C0.66 0.66 1.32 1.32 2 2 C1.02526874 3.66926454 0.04510211 5.33535642 -0.9375 7 C-1.48277344 7.928125 -2.02804688 8.85625 -2.58984375 9.8125 C-3.05519531 10.534375 -3.52054688 11.25625 -4 12 C-4.33 12 -4.66 12 -5 12 C-5.35338623 9.03155565 -5.5417682 6.84401782 -3.88671875 4.265625 C-2.64496832 2.79651181 -1.32662082 1.39295186 0 0 Z " fill="#FFDFDF" transform="translate(143,56)"/>
<path d="M0 0 C0.33 0 0.66 0 1 0 C1 3.3 1 6.6 1 10 C-0.98 10.66 -2.96 11.32 -5 12 C-3.35 8.04 -1.7 4.08 0 0 Z " fill="#C1B9D4" transform="translate(377,71)"/>
<path d="M0 0 C0.99 0.33 1.98 0.66 3 1 C2.34 3.31 1.68 5.62 1 8 C0.67 7.01 0.34 6.02 0 5 C-0.66 4.67 -1.32 4.34 -2 4 C-1.34 2.68 -0.68 1.36 0 0 Z " fill="#B8B0CF" transform="translate(298,61)"/>
<path d="M0 0 C0.99 0 1.98 0 3 0 C3 1.65 3 3.3 3 5 C2.34 4.34 1.68 3.68 1 3 C-0.32 3.99 -1.64 4.98 -3 6 C-1.125 1.125 -1.125 1.125 0 0 Z " fill="#D8D3E4" transform="translate(396,56)"/>
</svg>
